<svg width="411" height="102" viewBox="0 0 411 102" fill="none" xmlns="http://www.w3.org/2000/svg">
<path d="M30.3152 96.7567L2.69741 99.7571C1.44662 99.8931 -0.0237298 99.1693 0.000757612 98.0131C0.256106 85.9587 0.110329 31.1069 0.000105588 1.51301C-0.00365239 0.504208 1.52951 -0.00535158 2.62869 0.000305292L402.627 -5.4387e-07C403.679 0.00537652 409.942 1.95339 410.217 3.26109L410.217 99.8623C410.287 101.052 409.12 101.979 407.849 101.735L383.499 97.0788C383.088 97.0003 382.72 96.8039 382.432 96.5229C372.215 86.5634 355.774 82.0914 346.959 80.6897C339.89 79.5658 330.715 79.7723 327.18 79.9082C326.3 79.942 325.504 79.4428 325.12 78.7136C321.053 70.98 310.731 70.5808 303.679 69.6141C303.086 69.5327 302.572 69.2007 302.276 68.7222L293.018 53.7933C292.666 53.2258 292.011 52.8729 291.299 52.8681L118.932 51.7364C118.084 51.7309 117.328 52.221 117.051 52.9557L111.846 66.7834C111.514 67.6663 110.503 68.159 109.493 68.028C99.7522 66.7665 92.7111 73.3615 90.1166 79.3431C89.7399 80.2113 88.7548 80.7654 87.75 80.6041C54.3562 75.2446 42.5018 81.5271 31.7286 95.9659C31.4032 96.4019 30.8878 96.6944 30.3152 96.7567Z" fill="#281910"/>
</svg>
